PathFileType	4	(X/Y/Z)	C:\Users\chris\Documents\GitHub\baseballds\vids\pitch5_Sports2D\pitch5_Sports2D_px_person06.trc
DataRate	CameraRate	NumFrames	NumMarkers	Units	OrigDataRate	OrigDataStartFrame	OrigNumFrames
30	30	13	22	m	30	130	149
Frame#	Time	Hip			RHip			RKnee			RAnkle			RBigToe			RSmallToe			RHeel			LHip			LKnee			LAnkle			LBigToe			LSmallToe			LHeel			Neck			Head			Nose			RShoulder			RElbow			RWrist			LShoulder			LElbow			LWrist		
		X1	Y1	Z1	X2	Y2	Z2	X3	Y3	Z3	X4	Y4	Z4	X5	Y5	Z5	X6	Y6	Z6	X7	Y7	Z7	X8	Y8	Z8	X9	Y9	Z9	X10	Y10	Z10	X11	Y11	Z11	X12	Y12	Z12	X13	Y13	Z13	X14	Y14	Z14	X15	Y15	Z15	X16	Y16	Z16	X17	Y17	Z17	X18	Y18	Z18	X19	Y19	Z19	X20	Y20	Z20	X21	Y21	Z21	X22	Y22	Z22
130	4.333333333333333	1276.783043197402	575.4424256089925	0.0	1286.6756126484688	577.8287296253218	0.0	1298.1312178228866	671.231444206066	0.0	1274.7309141142582	764.5838087645917	0.0	1291.7291713230288	782.8245001225768	0.0	1297.0664892349487	791.4869205062112	0.0	1267.130236727743	777.4999183888883	0.0	1263.120937879651	577.0394084775184	0.0	1287.6770287525505	662.0620432147452	0.0	1245.5806511781236	733.644307869102	0.0	1274.6461197530457	765.3477102426846	0.0	1273.569002726897	756.9866696605288	0.0	1233.2550438845853	745.0849919905199	0.0	1279.3730815236122	435.41883302122835	0.0	1290.8855591058727	372.9726472016922	0.0	1302.738093097557	411.8978081116588	0.0	1285.8523550581453	451.9317210721818	0.0	1314.5459547464307	509.9650915990728	0.0	1332.55228166466	504.7707571860632	0.0	1252.2619238457637	450.29442169860494	0.0	1264.815531563906	516.6602311432544	0.0	1290.2140814259214	548.9602422388607	0.0
131	4.366666666666666	1280.1510716150478	573.4865451201763	0.0	1284.688559402384	577.1028556312908	0.0	1299.7802666039747	669.9804889477948	0.0	1274.9610435413692	764.9222365164553	0.0	1307.0756495842718	789.9143035953678	0.0	1300.6220036194134	797.9143200978064	0.0	1265.010801586879	777.2635666707804	0.0	1269.407482168578	575.2243958648096	0.0	1293.2749566996808	663.3010689616679	0.0	1258.5821305182928	744.0761605104115	0.0	1296.6161719998925	768.2504709802527	0.0	1292.5808889118216	760.1500751678575	0.0	1247.1919731070113	755.3912184530548	0.0	1283.4322796371498	434.4289088119891	0.0	1295.64231900446	372.65862621753627	0.0	1306.2282858596298	412.06210638140465	0.0	1283.549319247805	450.38549509535443	0.0	1321.6414183721124	508.3889149188485	0.0	1340.04052721073	477.42100379015073	0.0	1255.954724191233	446.7650884545536	0.0	1294.1668227379416	513.6905312998452	0.0	1311.350586837803	540.7163193596051	0.0
132	4.4	1281.9675304413404	572.780439162241	0.0	1284.045638207301	576.9483097786186	0.0	1301.6989145776076	668.9569665355415	0.0	1274.3407572648478	765.3133946009788	0.0	1309.1535148416674	791.5391522710355	0.0	1300.4650450627882	799.2870660115802	0.0	1261.8010189269232	775.7177571779009	0.0	1273.1113478569835	574.8704754003032	0.0	1296.0357981924765	663.6760197775011	0.0	1265.2146119679196	749.8236285456542	0.0	1305.468687762399	768.9511697756197	0.0	1294.800318458301	763.5671321084642	0.0	1251.592379062629	758.4018371547979	0.0	1288.0325532445768	433.1180368189764	0.0	1301.3039621404089	372.5161852366644	0.0	1311.7777387801966	411.3623511322301	0.0	1290.6957587742775	449.3199314268626	0.0	1327.5526215850446	509.7293677107432	0.0	1348.478256896319	482.48756158326114	0.0	1259.5019963167515	444.7016288950112	0.0	1297.2119740083242	514.1712829939975	0.0	1307.6588043318266	536.0176093518533	0.0
133	4.433333333333334	1282.8561582713432	573.355739779999	0.0	1285.4330079566246	576.3989049082677	0.0	1302.484926488968	668.7971953877891	0.0	1272.8791550027986	765.0335009940469	0.0	1305.7156904426702	787.8566244863033	0.0	1300.3796239464725	795.3127126330853	0.0	1259.2364177670643	773.6701177296638	0.0	1273.4041030062433	575.0941591191174	0.0	1297.7408191895245	663.3908184658097	0.0	1269.8752886864575	751.5937358862327	0.0	1308.9402712819642	768.1009968470355	0.0	1292.8777539091498	764.5194081429869	0.0	1252.879166443245	757.4795031291694	0.0	1291.8677785408893	432.67720595408565	0.0	1306.2679311763025	372.7723105890812	0.0	1317.5421235199794	410.5767396362733	0.0	1303.2490635450115	448.88316591094167	0.0	1331.821100054471	510.67734262928417	0.0	1356.19291360477	495.3092142361221	0.0	1262.245669452598	445.10523656631653	0.0	1272.9784058992757	517.3363275718038	0.0	1273.7638015970094	550.1146521272901	0.0
134	4.466666666666667	1284.029236832887	574.1739684609984	0.0	1288.1025986334923	574.2021958419303	0.0	1302.1746032601832	669.3911337418064	0.0	1271.5311897282709	763.9442854017199	0.0	1304.848964110497	783.7906611096568	0.0	1301.726502359326	790.40681059604	0.0	1257.520915352949	772.9122496323114	0.0	1272.1916768849421	573.7018172487024	0.0	1299.2165219525752	663.6247717491511	0.0	1277.545589806536	752.2668722588728	0.0	1314.6297930503251	769.022905216397	0.0	1300.3678312167428	764.3075431614335	0.0	1259.4102947187907	758.5363881210799	0.0	1293.8315201505045	432.9760441214686	0.0	1310.091049072194	372.97424858988956	0.0	1322.269052435859	409.6546247406942	0.0	1311.4848074031565	448.57320041763944	0.0	1333.6637522811359	508.98854737477313	0.0	1361.904953035394	493.4481075839643	0.0	1264.0449473716333	446.83509493907053	0.0	1249.0589323864974	519.3333873441985	0.0	1240.0377955583094	568.1481518334598	0.0
135	4.5	1285.935337454938	574.3985391387014	0.0	1291.1709252599574	570.9196142824459	0.0	1301.8910780828933	670.1971414775571	0.0	1270.2898496785049	762.471305745514	0.0	1306.6141323341471	782.4881219361744	0.0	1302.9167368446715	788.2487388240343	0.0	1256.1151954506774	773.3011804425801	0.0	1271.8380912817036	570.3907423731338	0.0	1300.4403018321868	664.518050949297	0.0	1286.4707769740821	752.9518736999962	0.0	1320.212703956815	772.6730064037263	0.0	1314.3715559900666	765.5039546358595	0.0	1270.0126434943463	761.9210365337451	0.0	1294.5882251546932	433.1151876335938	0.0	1313.0186511078616	372.9092341270732	0.0	1325.5651041158324	408.701120538026	0.0	1312.826184950226	448.5352217210111	0.0	1333.6229673199603	506.84993502216724	0.0	1365.278773226511	488.5429125989061	0.0	1265.2931727355638	447.87634039211383	0.0	1241.3950447901943	518.007502316737	0.0	1226.0303558678106	573.5388302980273	0.0
136	4.533333333333333	1287.911290910241	574.2575552008641	0.0	1293.548181720799	568.6261396763474	0.0	1302.18821697124	670.8967551167942	0.0	1269.197821570043	761.0237593000079	0.0	1308.0583623314153	782.8137336931683	0.0	1303.559076312592	788.1836034036061	0.0	1254.3333305914339	773.3671720180557	0.0	1273.1519251459088	567.4298024940394	0.0	1302.621324254487	665.2685720835788	0.0	1293.1132692226352	753.6841677936578	0.0	1322.3557454820661	776.3586521245459	0.0	1324.0085049379206	768.105185378449	0.0	1278.5893461316853	764.9720088490453	0.0	1295.648224554723	433.2129143260564	0.0	1314.918031759607	373.01263476785465	0.0	1327.6875512431027	408.3338946696507	0.0	1311.4569047251691	449.64997806280996	0.0	1333.9210457987533	508.10253649132494	0.0	1367.671026788522	497.538447937634	0.0	1266.3821540254892	447.72242634576094	0.0	1243.6834371801901	515.3059515736475	0.0	1224.699840516006	569.4367102053762	0.0
137	4.566666666666666	1289.287831470185	574.430632034986	0.0	1294.6156660903434	568.5796463299505	0.0	1302.8452173474593	671.2439768307781	0.0	1268.9282992982921	759.7619873867508	0.0	1308.1932923476888	782.3184031925894	0.0	1304.5629218845927	787.7524178787886	0.0	1252.5080618126433	772.7342039966725	0.0	1275.3535316532661	566.8254074270191	0.0	1305.6069941048895	665.3454588908078	0.0	1295.9437243182285	754.2709500050477	0.0	1321.776010467379	777.7264750851393	0.0	1323.0742030023864	770.2883517145765	0.0	1281.59411546035	766.2755298262356	0.0	1297.459371939065	433.7786577976439	0.0	1315.8772126834438	373.20610233308673	0.0	1329.186837263211	408.3586096529152	0.0	1311.0210124185387	452.02504301305595	0.0	1335.4594201769066	512.7277663222687	0.0	1370.024494554029	511.1848857361598	0.0	1267.435560746981	447.382750649837	0.0	1246.8975312511266	513.831301544886	0.0	1225.9683032276168	564.782583600079	0.0
138	4.6	1290.4030880960886	574.9867419098257	0.0	1295.2084972624102	569.9204133459235	0.0	1303.6627168881132	671.1068933748454	0.0	1269.357758421936	758.9421058758339	0.0	1307.3169735421006	781.1669793818618	0.0	1304.8920751019039	786.7377242360744	0.0	1251.646735205742	772.0325860289058	0.0	1277.377633840165	568.0204372664963	0.0	1307.0315405167212	664.8247024153652	0.0	1295.7713594606187	754.7156869097446	0.0	1320.7660788732728	777.762402861377	0.0	1314.8362413813165	771.0716596126013	0.0	1281.0331485799386	766.2886392379696	0.0	1299.3377987886233	434.2287845809995	0.0	1316.5452025130026	372.784476762656	0.0	1330.465214451576	407.89213869312425	0.0	1311.804591922727	454.1756837759753	0.0	1336.8332885284694	516.2051969675823	0.0	1370.5248725496372	509.72821498736454	0.0	1268.57377975474	447.48002251183857	0.0	1248.5227009802763	513.8676617414704	0.0	1227.4398878813738	562.9278294757391	0.0
139	4.633333333333333	1291.9264416139367	575.2045240363337	0.0	1296.7761867177378	570.4610133548961	0.0	1304.496068477234	670.404439432123	0.0	1269.4950017288988	758.632673989317	0.0	1306.2300112919897	780.4615624810506	0.0	1303.871023567621	786.0019675179974	0.0	1251.9899493913479	771.5708438392504	0.0	1278.5545743887146	568.5419532628881	0.0	1306.2996239446716	663.6414759287458	0.0	1294.917837363098	754.7591568670746	0.0	1320.7482498223408	777.9634587727969	0.0	1309.2549758811326	770.753895750593	0.0	1280.552229967364	765.6793248950266	0.0	1300.6698605288502	433.8601762167492	0.0	1317.3379537466117	371.7796971365636	0.0	1331.5968482923233	406.74334494807107	0.0	1312.9401719581172	454.6061577200734	0.0	1337.246512993483	515.7318117340851	0.0	1368.3794681102784	493.24814234860094	0.0	1269.910128698692	447.73311162170904	0.0	1249.587524323184	514.3651743421774	0.0	1229.213067479346	563.7396420352478	0.0
140	4.666666666666667	1293.7414224605718	574.5922466713624	0.0	1299.4695854205365	569.3489997191099	0.0	1305.0096260233113	668.9550996216169	0.0	1269.116107069618	758.3451813770187	0.0	1306.7953400505016	779.5248706210917	0.0	1303.849704668522	785.0078817632716	0.0	1252.7499520840895	770.8686500719106	0.0	1278.8321391120169	567.2258873814149	0.0	1305.669936204387	661.6229253201755	0.0	1294.7428427370305	753.7797947126182	0.0	1321.7964434270464	777.6166242575657	0.0	1311.6027029692857	769.814149921245	0.0	1280.26466558132	764.3035091189736	0.0	1301.4694656690126	433.09829228582663	0.0	1318.2875049315062	370.8817623377146	0.0	1332.4646331668525	405.6207046543864	0.0	1314.3196257344032	453.5920879983797	0.0	1337.4489115976507	513.5618879932778	0.0	1366.3170593230893	478.8512822581034	0.0	1271.1480764670964	447.7277758288691	0.0	1251.1517228695363	514.7807766791864	0.0	1230.7901768000993	567.0183672710488	0.0
141	4.7	1295.1105986910893	573.547411233917	0.0	1302.02354322375	567.8401337487247	0.0	1305.120402694729	667.0614398054153	0.0	1268.9379867024606	757.8040499476078	0.0	1309.7992200350125	777.9601873946108	0.0	1306.3683864648874	783.3373140137909	0.0	1253.2288941353984	769.8641030680069	0.0	1279.1603069586486	565.5040837028167	0.0	1306.4867878107862	659.5551338925247	0.0	1294.5175660840662	751.9771509841003	0.0	1323.5280154278998	775.9999129235495	0.0	1317.0057179263417	768.6061192749487	0.0	1278.4071054428255	762.3771494422442	0.0	1302.1081099718083	432.4645831419031	0.0	1319.2797758157776	370.13962577375844	0.0	1333.0875013846876	404.95241423619257	0.0	1315.8971937503852	452.3044684858027	0.0	1338.1108774129032	512.3322859090869	0.0	1366.5162721805302	475.01619009296326	0.0	1272.1716887111672	447.3540801427441	0.0	1253.5051936551743	515.2087182508892	0.0	1234.3434433830387	570.7564027774439	0.0
142	4.733333333333333	1295.6231563995862	572.6276224161096	0.0	1303.4436499104013	567.0485532555135	0.0	1305.1962578183286	665.5082614997674	0.0	1269.336170547501	757.1131439593125	0.0	1312.728142338295	776.8867610693663	0.0	1308.7047507373807	781.8340463322788	0.0	1253.6866912002372	769.2316518814057	0.0	1280.8054526504454	564.897053924305	0.0	1307.4750612448343	658.709566993683	0.0	1293.5155363863857	750.2594766664779	0.0	1325.2636843057116	774.2299475704391	0.0	1319.7936305028925	767.6902865258261	0.0	1275.8033990232313	760.9651223205368	0.0	1302.895988489288	431.59665558568287	0.0	1319.9857332317347	369.0105234079805	0.0	1333.8025149755977	404.1957835490221	0.0	1317.171541771869	451.27733719031403	0.0	1338.9912555969463	511.96658008562986	0.0	1368.3814560827882	476.49436900642723	0.0	1273.6539774656776	446.5976763316469	0.0	1256.8983457329205	515.3786128288552	0.0	1249.6047668674719	565.3670937660569	0.0
